# xmcd
#
# Track frame offsets:
#	150
#	14433
#	29453
#	47040
#	58595
#	70250
#	85885
#	103360
#	116900
#	129283
#	146308
#	157175
#
# Disc length: 2315 seconds
#
# Revision: 1
# Processed by: cddbd v1.5.2PL0 Copyright (c) Steve Scherf et al.
# Submitted via: audiograbber 1.83.01
#
DISCID=aa09090c
DTITLE=Declan Nerney - Lets Dance
DYEAR=1998
DGENRE=Country
TTITLE0=Let's Dance
TTITLE1=I Go To Pieces
TTITLE2=Come Home To You
TTITLE3=I Love You Still
TTITLE4=Don't Be Ashamed Of Your Age
TTITLE5=The Kingdom Of Kerry
TTITLE6=Nothing Can Hurt You (Like Someone You Love)
TTITLE7=Come With Me Molly
TTITLE8=Always True
TTITLE9=Dear Judge (Divorce)
TTITLE10=(You're Out Doing) What I'm Here Doing Without
TTITLE11=Walk A Fine Line
EXTD=
EXTT0=
EXTT1=
EXTT2=
EXTT3=
EXTT4=
EXTT5=
EXTT6=
EXTT7=
EXTT8=
EXTT9=
EXTT10=
EXTT11=
PLAYORDER=
